<?xml version="1.0" encoding="UTF-8"?>
<svg width="128" height="128" viewBox="0 0 128 128" xmlns="http://www.w3.org/2000/svg">
  <!-- Background circle -->
  <circle cx="64" cy="64" r="60" fill="#f4e4c1" stroke="#8b6914" stroke-width="2"/>
  
  <!-- Desert floor -->
  <ellipse cx="64" cy="110" rx="50" ry="8" fill="#d4a574"/>
  
  <!-- Ancient columns (Palmyra ruins) -->
  <!-- Left column -->
  <rect x="25" y="50" width="8" height="45" fill="#c9a876" stroke="#8b6914" stroke-width="1"/>
  <rect x="23" y="48" width="12" height="4" fill="#8b6914"/>
  <rect x="24" y="95" width="10" height="3" fill="#8b6914"/>
  
  <!-- Center column (tallest) -->
  <rect x="45" y="35" width="10" height="60" fill="#c9a876" stroke="#8b6914" stroke-width="1"/>
  <rect x="43" y="33" width="14" height="4" fill="#8b6914"/>
  <rect x="44" y="95" width="12" height="3" fill="#8b6914"/>
  
  <!-- Right column -->
  <rect x="70" y="45" width="8" height="50" fill="#c9a876" stroke="#8b6914" stroke-width="1"/>
  <rect x="68" y="43" width="12" height="4" fill="#8b6914"/>
  <rect x="69" y="95" width="10" height="3" fill="#8b6914"/>
  
  <!-- Far right broken column -->
  <rect x="90" y="60" width="6" height="35" fill="#c9a876" stroke="#8b6914" stroke-width="1"/>
  <rect x="89" y="58" width="8" height="3" fill="#8b6914"/>
  <polygon points="89,58 97,58 95,52 91,52" fill="#c9a876" stroke="#8b6914" stroke-width="1"/>
  
  <!-- Ancient archway remains -->
  <path d="M 45 50 Q 57 40 70 50" stroke="#8b6914" stroke-width="2" fill="none"/>
  
  <!-- Scattered stones/ruins -->
  <circle cx="35" cy="100" r="2" fill="#8b6914"/>
  <circle cx="80" cy="105" r="1.5" fill="#8b6914"/>
  <rect x="55" y="102" width="4" height="2" fill="#8b6914"/>
  
  <!-- File manager overlay (folder icon in corner) -->
  <g transform="translate(85, 15)">
    <rect x="0" y="5" width="20" height="15" rx="2" fill="#4a90e2" stroke="#2c5aa0" stroke-width="1"/>
    <rect x="0" y="2" width="8" height="4" rx="1" fill="#4a90e2" stroke="#2c5aa0" stroke-width="1"/>
    <rect x="4" y="8" width="12" height="2" fill="#ffffff" opacity="0.7"/>
    <rect x="4" y="12" width="8" height="2" fill="#ffffff" opacity="0.7"/>
  </g>
  
  <!-- Sun (desert atmosphere) -->
  <circle cx="20" cy="25" r="8" fill="#ffeb3b" stroke="#f57c00" stroke-width="1"/>
  <path d="M 15 20 L 25 30 M 25 20 L 15 30 M 12 25 L 28 25 M 20 17 L 20 33" stroke="#f57c00" stroke-width="1"/>
</svg>
